<svg width="24" height="25" viewBox="0 0 24 25" fill="none" xmlns="http://www.w3.org/2000/svg">
<path d="M20.9728 7.2174C20.5084 7.83692 19.947 8.37733 19.3103 8.81776C19.3103 8.97959 19.3103 9.14142 19.3103 9.31225C19.3154 12.2511 18.1415 15.0691 16.0518 17.1345C13.962 19.1999 11.1312 20.3399 8.19405 20.2989C6.49599 20.3046 4.81967 19.9169 3.29642 19.1661C3.21428 19.1302 3.16131 19.049 3.16162 18.9593V18.8604C3.16162 18.7313 3.26623 18.6267 3.39527 18.6267C5.06442 18.5716 6.67402 17.9929 7.99634 16.9724C6.48553 16.9419 5.12619 16.0469 4.5006 14.6707C4.46901 14.5956 4.47884 14.5093 4.52657 14.4432C4.57429 14.3771 4.653 14.3407 4.73425 14.3471C5.19342 14.3932 5.65718 14.3505 6.1002 14.2212C4.43239 13.875 3.17921 12.4904 2.99986 10.7957C2.99349 10.7144 3.02992 10.6357 3.096 10.5879C3.16207 10.5402 3.24824 10.5303 3.32338 10.562C3.77094 10.7595 4.25409 10.8635 4.74324 10.8676C3.28184 9.90846 2.65061 8.08405 3.20655 6.42622C3.26394 6.26513 3.40181 6.14612 3.5695 6.11294C3.73718 6.07975 3.90996 6.13728 4.02432 6.26439C5.99639 8.36325 8.70604 9.61396 11.5819 9.75279C11.5083 9.45885 11.4721 9.15676 11.4741 8.85372C11.501 7.26472 12.4842 5.84921 13.9634 5.26987C15.4425 4.69054 17.1249 5.06203 18.223 6.21044C18.9714 6.06785 19.695 5.81645 20.3707 5.46421C20.4202 5.43331 20.483 5.43331 20.5325 5.46421C20.5634 5.51373 20.5634 5.57652 20.5325 5.62604C20.2052 6.37552 19.6523 7.00412 18.9509 7.42419C19.5651 7.35296 20.1685 7.20807 20.7482 6.99264C20.797 6.95942 20.8611 6.95942 20.9099 6.99264C20.9508 7.01134 20.9814 7.04711 20.9935 7.09042C21.0056 7.13373 20.998 7.18018 20.9728 7.2174Z" fill="#111111"/>
</svg>
